<?xml version="1.0" encoding="utf-8"?>
<!-- Generator: Adobe Illustrator 22.1.0, SVG Export Plug-In . SVG Version: 6.00 Build 0)  -->
<svg version="1.1" id="Layer_1" xmlns="http://www.w3.org/2000/svg" xmlns:xlink="http://www.w3.org/1999/xlink" x="0px" y="0px"
	 viewBox="0 0 32 32" style="enable-background:new 0 0 32 32;" xml:space="preserve">
<g>
	<path d="M26.3,5.6v20.8H5.6V5.6H26.3 M26.7,3.6H5.3c-0.9,0-1.6,0.7-1.6,1.6v21.5c0,0.9,0.7,1.6,1.6,1.6h21.4c0.9,0,1.6-0.7,1.6-1.6
		V5.3C28.3,4.4,27.6,3.6,26.7,3.6L26.7,3.6z"/>
</g>
<path d="M26.9,5L5.3,26.7c-0.6,0.6-1.7,0.2-1.7-0.7V6.9c0-1.8,1.4-3.2,3.2-3.2h19.5C27.1,3.6,27.4,4.5,26.9,5z"/>
</svg>
