<?xml version="1.0" encoding="utf-8"?>
<!-- Generator: Adobe Illustrator 22.1.0, SVG Export Plug-In . SVG Version: 6.00 Build 0)  -->
<svg version="1.1" id="Layer_1" xmlns="http://www.w3.org/2000/svg" xmlns:xlink="http://www.w3.org/1999/xlink" x="0px" y="0px"
	 viewBox="0 0 32 32" style="enable-background:new 0 0 32 32;" xml:space="preserve">
<g>
	<polygon points="5.6,12.4 3.6,12.4 3.6,3.6 12.4,3.6 12.4,5.6 5.6,5.6 	"/>
</g>
<g>
	<polygon points="28.4,12.4 26.4,12.4 26.4,5.6 19.6,5.6 19.6,3.6 28.4,3.6 	"/>
</g>
<g>
	<polygon points="12.4,28.4 3.6,28.4 3.6,19.6 5.6,19.6 5.6,26.4 12.4,26.4 	"/>
</g>
<g>
	<polygon points="28.4,28.4 19.6,28.4 19.6,26.4 26.4,26.4 26.4,19.6 28.4,19.6 	"/>
</g>
<g>
	<polygon points="28.4,31.2 26.4,31.2 26.4,26.4 31.2,26.4 31.2,28.4 28.4,28.4 	"/>
</g>
</svg>
